0
SECTION
2
HEADER
9
$INSUNITS
70
4
9
$ACADVER
1
AC1014
9
$HANDSEED
5
FFFF
0
ENDSEC
0
SECTION
2
TABLES
0
TABLE
2
VPORT
5
8
100
AcDbSymbolTable
0
ENDTAB
0
TABLE
2
LTYPE
5
5
100
AcDbSymbolTable
0
LTYPE
5
14
100
AcDbSymbolTableRecord
100
AcDbLinetypeTableRecord
2
BYBLOCK
70
0
0
LTYPE
5
15
100
AcDbSymbolTableRecord
100
AcDbLinetypeTableRecord
2
BYLAYER
70
0
0
ENDTAB
0
TABLE
2
LAYER
5
2
100
AcDbSymbolTable
70
2
0
LAYER
5
50
100
AcDbSymbolTableRecord
100
AcDbLayerTableRecord
2
0
70
0
6
CONTINUOUS
0
ENDTAB
0
TABLE
2
STYLE
5
3
100
AcDbSymbolTable
70
1
0
STYLE
5
11
100
AcDbSymbolTableRecord
100
AcDbTextStyleTableRecord
2
STANDARD
70
0
0
ENDTAB
0
TABLE
2
VIEW
5
6
100
AcDbSymbolTable
70
0
0
ENDTAB
0
TABLE
2
UCS
5
7
100
AcDbSymbolTable
70
0
0
ENDTAB
0
TABLE
2
APPID
5
9
100
AcDbSymbolTable
70
2
0
APPID
5
12
100
AcDbSymbolTableRecord
100
AcDbRegAppTableRecord
2
ACAD
70
0
0
ENDTAB
0
TABLE
2
DIMSTYLE
5
A
100
AcDbSymbolTable
70
1
0
ENDTAB
0
TABLE
2
BLOCK_RECORD
5
1
100
AcDbSymbolTable
70
1
0
BLOCK_RECORD
5
1F
100
AcDbSymbolTableRecord
100
AcDbBlockTableRecord
2
*MODEL_SPACE
0
BLOCK_RECORD
5
1B
100
AcDbSymbolTableRecord
100
AcDbBlockTableRecord
2
*PAPER_SPACE
0
ENDTAB
0
ENDSEC
0
SECTION
2
BLOCKS
0
BLOCK
5
20
100
AcDbEntity
100
AcDbBlockBegin
2
*MODEL_SPACE
0
ENDBLK
5
21
100
AcDbEntity
100
AcDbBlockEnd
0
BLOCK
5
1C
100
AcDbEntity
100
AcDbBlockBegin
2
*PAPER_SPACE
0
ENDBLK
5
1D
100
AcDbEntity
100
AcDbBlockEnd
0
ENDSEC
0
SECTION
2
ENTITIES
0
LWPOLYLINE
5
100
100
AcDbEntity
8
0
100
AcDbPolyline
90
4
70
1
43
0.0
10
-160.85053916724644
20
-0.092307692354040641
10
-157.85195962187126
20
-1.6479873021779667e-15
10
-157.60580577568169
20
-7.9962121209641843
10
-160.60438532109785
20
-8.08851981330751
0
LWPOLYLINE
5
101
100
AcDbEntity
8
0
100
AcDbPolyline
90
4
70
1
43
0.0
10
-143.72462324115773
20
-4.3826850232948766
42
0.99999999999999989
10
-143.10923862564505
20
-24.37321532579038
10
-123.11870832315465
20
-23.757830710282015
42
0.99999999999999989
10
-123.73409293866173
20
-3.7673004077862879
0
LWPOLYLINE
5
102
100
AcDbEntity
8
0
100
AcDbPolyline
90
4
70
1
43
0.0
10
-159.93882857271149
20
-29.708872376955931
10
-160.18498241886061
20
-21.712660255984932
10
-157.18640287337988
20
-21.620352563511144
10
-156.94024902719073
20
-29.616564684475261
0
LWPOLYLINE
5
103
100
AcDbEntity
8
0
100
AcDbPolyline
90
72
70
1
43
0.0
10
-166.85338142222079
20
-0.092307692270041944
10
-165.93030449914704
20
-30.078103145943771
42
0.42325607878449678
10
-162.74719698174863
20
-32.980114980393182
10
-152.7661318929936
20
-32.365021740315996
10
-152.95065986501677
20
-29.370702213683806
10
-131.74089655140571
20
-28.063629078514708
10
-131.55636857938185
20
-31.057948605151498
10
-121.57530349062682
20
-30.442855365074308
10
-121.75983146265004
20
-27.448535838442119
10
-100.55006814903898
20
-26.141462703273021
10
-100.36554017701511
20
-29.135782229909815
10
-90.384475088260089
20
-28.520688989832621
10
-90.569003060283265
20
-25.526369463200442
10
-69.359239746672188
20
-24.219296328031334
10
-69.174711774648344
20
-27.213615854668127
10
-59.193646685893299
20
-26.598522614590934
10
-59.378174657916475
20
-23.604203087958755
10
-38.168411344305412
20
-22.297129952789646
10
-37.983883372281554
20
-25.29144947942644
10
-28.002818283526523
20
-24.676356239349246
10
-28.187346255549723
20
-21.682036712717068
10
-6.9775829419386426
20
-20.374963577547959
10
-6.7930549699148024
20
-23.369283104184753
10
3.1880101188402499
20
-22.754189864107559
10
3.0034821468170314
20
-19.75987033747538
10
24.21324546042813
20
-18.452797202306275
10
24.397773432451988
20
-21.447116728943065
10
34.378838521207044
20
-20.832023488865872
10
34.194310549183825
20
-17.837703962233693
10
55.404073862794917
20
-16.530630827064588
10
55.588601834818746
20
-19.524950353701382
10
65.569666923573791
20
-18.909857113624181
10
65.385138951550573
20
-15.915537586992007
10
86.594902265161679
20
-14.608464451822902
10
86.779430237185537
20
-17.602783978459694
10
96.760495325940582
20
-16.987690738382494
42
0.4052284966803526
10
99.57454689929726
20
-13.901063519443415
10
99.143777668524592
20
0.092307692316664358
42
0.4052284966795599
10
96.145198123149953
20
3.0000000000000249
10
86.145198123149967
20
3.000000000000024
10
86.145198123149967
20
0
10
64.895198123149939
20
2.3869795029440866e-14
10
64.895198123149939
20
3.0000000000000244
10
54.895198123149967
20
3.000000000000024
10
54.895198123149967
20
0
10
33.645198123149939
20
2.3869795029440866e-14
10
33.645198123149939
20
3.0000000000000244
10
23.645198123149971
20
3.000000000000024
10
23.645198123149971
20
0
10
2.3951981231499353
20
2.3869795029440866e-14
10
2.3951981231499353
20
3.0000000000000244
10
-7.6048018768500292
20
3.000000000000024
10
-7.6048018768500292
20
0
10
-28.854801876850047
20
2.3869795029440866e-14
10
-28.854801876850047
20
3.0000000000000244
10
-38.854801876850033
20
3.000000000000024
10
-38.854801876850033
20
0
10
-60.104801876850047
20
2.3869795029440866e-14
10
-60.104801876850047
20
3.0000000000000244
10
-70.104801876850033
20
3.000000000000024
10
-70.104801876850033
20
0
10
-91.354801876850047
20
2.3869795029440866e-14
10
-91.354801876850047
20
3.0000000000000244
10
-101.35480187685003
20
3.000000000000024
10
-101.35480187685003
20
0
10
-122.60480187685005
20
2.3869795029440866e-14
10
-122.60480187685005
20
3.0000000000000244
10
-132.60480187685002
20
3.000000000000024
10
-132.60480187685002
20
0
10
-153.85480187685005
20
2.3869795029440866e-14
10
-153.85480187685005
20
3.0000000000000244
10
-163.85480187685005
20
3.000000000000024
42
0.42325607879387595
0
ENDSEC
0
SECTION
2
OBJECTS
0
DICTIONARY
5
C
100
AcDbDictionary
3
ACAD_GROUP
350
D
3
ACAD_MLINESTYLE
350
17
0
DICTIONARY
5
D
100
AcDbDictionary
0
DICTIONARY
5
1A
330
C
100
AcDbDictionary
0
DICTIONARY
5
17
100
AcDbDictionary
0
ENDSEC
0
EOF
