0
SECTION
2
HEADER
9
$INSUNITS
70
4
9
$ACADVER
1
AC1014
9
$HANDSEED
5
FFFF
0
ENDSEC
0
SECTION
2
TABLES
0
TABLE
2
VPORT
5
8
100
AcDbSymbolTable
0
ENDTAB
0
TABLE
2
LTYPE
5
5
100
AcDbSymbolTable
0
LTYPE
5
14
100
AcDbSymbolTableRecord
100
AcDbLinetypeTableRecord
2
BYBLOCK
70
0
0
LTYPE
5
15
100
AcDbSymbolTableRecord
100
AcDbLinetypeTableRecord
2
BYLAYER
70
0
0
ENDTAB
0
TABLE
2
LAYER
5
2
100
AcDbSymbolTable
70
2
0
LAYER
5
50
100
AcDbSymbolTableRecord
100
AcDbLayerTableRecord
2
0
70
0
6
CONTINUOUS
0
ENDTAB
0
TABLE
2
STYLE
5
3
100
AcDbSymbolTable
70
1
0
STYLE
5
11
100
AcDbSymbolTableRecord
100
AcDbTextStyleTableRecord
2
STANDARD
70
0
0
ENDTAB
0
TABLE
2
VIEW
5
6
100
AcDbSymbolTable
70
0
0
ENDTAB
0
TABLE
2
UCS
5
7
100
AcDbSymbolTable
70
0
0
ENDTAB
0
TABLE
2
APPID
5
9
100
AcDbSymbolTable
70
2
0
APPID
5
12
100
AcDbSymbolTableRecord
100
AcDbRegAppTableRecord
2
ACAD
70
0
0
ENDTAB
0
TABLE
2
DIMSTYLE
5
A
100
AcDbSymbolTable
70
1
0
ENDTAB
0
TABLE
2
BLOCK_RECORD
5
1
100
AcDbSymbolTable
70
1
0
BLOCK_RECORD
5
1F
100
AcDbSymbolTableRecord
100
AcDbBlockTableRecord
2
*MODEL_SPACE
0
BLOCK_RECORD
5
1B
100
AcDbSymbolTableRecord
100
AcDbBlockTableRecord
2
*PAPER_SPACE
0
ENDTAB
0
ENDSEC
0
SECTION
2
BLOCKS
0
BLOCK
5
20
100
AcDbEntity
100
AcDbBlockBegin
2
*MODEL_SPACE
0
ENDBLK
5
21
100
AcDbEntity
100
AcDbBlockEnd
0
BLOCK
5
1C
100
AcDbEntity
100
AcDbBlockBegin
2
*PAPER_SPACE
0
ENDBLK
5
1D
100
AcDbEntity
100
AcDbBlockEnd
0
ENDSEC
0
SECTION
2
ENTITIES
0
LWPOLYLINE
5
100
100
AcDbEntity
8
0
100
AcDbPolyline
90
4
70
1
43
0.0
10
39.399999999997881
20
64.895198123149953
10
39.399999999997881
20
54.895198123149967
10
36.399999999997874
20
54.895198123149953
10
36.399999999997874
20
64.895198123149953
0
LWPOLYLINE
5
101
100
AcDbEntity
8
0
100
AcDbPolyline
90
4
70
1
43
0.0
10
39.399999999997881
20
33.645198123149953
10
39.399999999997881
20
23.645198123149971
10
36.399999999997874
20
23.645198123149953
10
36.399999999997874
20
33.645198123149953
0
LWPOLYLINE
5
102
100
AcDbEntity
8
0
100
AcDbPolyline
90
4
70
1
43
0.0
10
-306.40000000000219
20
33.645198123149953
10
-306.40000000000219
20
23.645198123149971
10
-309.40000000000219
20
23.645198123149953
10
-309.40000000000219
20
33.645198123149953
0
LWPOLYLINE
5
103
100
AcDbEntity
8
0
100
AcDbPolyline
90
4
70
1
43
0.0
10
-306.40000000000219
20
-38.854801876850033
10
-309.40000000000219
20
-38.854801876850047
10
-309.40000000000219
20
-28.854801876850047
10
-306.40000000000219
20
-28.854801876850047
0
LWPOLYLINE
5
104
100
AcDbEntity
8
0
100
AcDbPolyline
90
4
70
1
43
0.0
10
-306.40000000000219
20
64.895198123149953
10
-306.40000000000219
20
54.895198123149967
10
-309.40000000000219
20
54.895198123149953
10
-309.40000000000219
20
64.895198123149953
0
CIRCLE
5
105
100
AcDbEntity
8
0
100
AcDbCircle
10
-262.5
20
-7.5000000000000071
30
0
40
1.9999999999999929
210
0
220
-0
230
1
0
CIRCLE
5
106
100
AcDbEntity
8
0
100
AcDbCircle
10
-157.5
20
-7.5000000000000071
30
0
40
1.9999999999999929
210
0
220
-0
230
1
0
LWPOLYLINE
5
107
100
AcDbEntity
8
0
100
AcDbPolyline
90
4
70
1
43
0.0
10
-271.50000000000216
20
-28.854801876850047
10
-271.50000000000216
20
-38.854801876850033
10
-274.50000000000216
20
-38.854801876850047
10
-274.50000000000216
20
-28.854801876850047
0
LWPOLYLINE
5
108
100
AcDbEntity
8
0
100
AcDbPolyline
90
4
70
1
43
0.0
10
4.4999999999978613
20
2.3951981231499531
10
4.4999999999978613
20
-7.6048018768500292
10
1.4999999999978542
20
-7.6048018768500469
10
1.4999999999978542
20
2.3951981231499531
0
LWPOLYLINE
5
109
100
AcDbEntity
8
0
100
AcDbPolyline
90
4
70
1
43
0.0
10
39.399999999997881
20
-60.104801876850047
10
39.399999999997881
20
-70.104801876850033
10
36.399999999997874
20
-70.104801876850047
10
36.399999999997874
20
-60.104801876850047
0
LWPOLYLINE
5
110
100
AcDbEntity
8
0
100
AcDbPolyline
90
4
70
1
43
0.0
10
-133.50000000000216
20
54.895198123149967
10
-136.50000000000216
20
54.895198123149953
10
-136.50000000000216
20
64.895198123149953
10
-133.50000000000216
20
64.895198123149953
0
LWPOLYLINE
5
111
100
AcDbEntity
8
0
100
AcDbPolyline
90
4
70
1
43
0.0
10
26.999999999997783
20
-123.85480187685002
10
26.999999999997783
20
-113.85480187685002
10
29.999999999997783
20
-113.85480187685002
10
29.999999999997783
20
-123.85480187685002
0
LWPOLYLINE
5
112
100
AcDbEntity
8
0
100
AcDbPolyline
90
4
70
1
43
0.0
10
4.4999999999978613
20
-91.354801876850047
10
4.4999999999978613
20
-101.35480187685003
10
1.4999999999978542
20
-101.35480187685005
10
1.4999999999978542
20
-91.354801876850047
0
CIRCLE
5
113
100
AcDbEntity
8
0
100
AcDbCircle
10
-210
20
-60
30
0
40
57.5
210
0
220
-0
230
1
0
LWPOLYLINE
5
114
100
AcDbEntity
8
0
100
AcDbPolyline
90
4
70
1
43
0.0
10
39.399999999997881
20
-7.6048018768500292
10
36.399999999997874
20
-7.6048018768500469
10
36.399999999997874
20
2.3951981231499531
10
39.399999999997881
20
2.3951981231499531
0
LWPOLYLINE
5
115
100
AcDbEntity
8
0
100
AcDbPolyline
90
4
70
1
43
0.0
10
4.4999999999978613
20
64.895198123149953
10
4.4999999999978613
20
54.895198123149967
10
1.4999999999978542
20
54.895198123149953
10
1.4999999999978542
20
64.895198123149953
0
LWPOLYLINE
5
116
100
AcDbEntity
8
0
100
AcDbPolyline
90
4
70
1
43
0.0
10
-271.50000000000216
20
-60.104801876850047
10
-271.50000000000216
20
-70.104801876850033
10
-274.50000000000216
20
-70.104801876850047
10
-274.50000000000216
20
-60.104801876850047
0
CIRCLE
5
117
100
AcDbEntity
8
0
100
AcDbCircle
10
-157.5
20
-112.49999999999999
30
0
40
1.9999999999999929
210
0
220
-0
230
1
0
LWPOLYLINE
5
118
100
AcDbEntity
8
0
100
AcDbPolyline
90
4
70
1
43
0.0
10
-271.50000000000216
20
2.3951981231499531
10
-271.50000000000216
20
-7.6048018768500292
10
-274.50000000000216
20
-7.6048018768500469
10
-274.50000000000216
20
2.3951981231499531
0
LWPOLYLINE
5
119
100
AcDbEntity
8
0
100
AcDbPolyline
90
4
70
1
43
0.0
10
-133.50000000000216
20
-101.35480187685003
10
-136.50000000000216
20
-101.35480187685005
10
-136.50000000000216
20
-91.354801876850047
10
-133.50000000000216
20
-91.354801876850047
0
LWPOLYLINE
5
120
100
AcDbEntity
8
0
100
AcDbPolyline
90
4
70
1
43
0.0
10
-133.50000000000216
20
-132.60480187685002
10
-136.50000000000216
20
-132.60480187685005
10
-136.50000000000216
20
-122.60480187685005
10
-133.50000000000216
20
-122.60480187685005
0
LWPOLYLINE
5
121
100
AcDbEntity
8
0
100
AcDbPolyline
90
4
70
1
43
0.0
10
-133.50000000000216
20
-38.854801876850033
10
-136.50000000000216
20
-38.854801876850047
10
-136.50000000000216
20
-28.854801876850047
10
-133.50000000000216
20
-28.854801876850047
0
LWPOLYLINE
5
122
100
AcDbEntity
8
0
100
AcDbPolyline
90
4
70
1
43
0.0
10
-271.50000000000216
20
-91.354801876850047
10
-271.50000000000216
20
-101.35480187685003
10
-274.50000000000216
20
-101.35480187685005
10
-274.50000000000216
20
-91.354801876850047
0
LWPOLYLINE
5
123
100
AcDbEntity
8
0
100
AcDbPolyline
90
4
70
1
43
0.0
10
39.399999999997881
20
-132.60480187685002
10
36.399999999997874
20
-132.60480187685005
10
36.399999999997874
20
-122.60480187685005
10
39.399999999997881
20
-122.60480187685005
0
LWPOLYLINE
5
124
100
AcDbEntity
8
0
100
AcDbPolyline
90
4
70
1
43
0.0
10
-133.50000000000216
20
-7.6048018768500292
10
-136.50000000000216
20
-7.6048018768500469
10
-136.50000000000216
20
2.3951981231499531
10
-133.50000000000216
20
2.3951981231499531
0
LWPOLYLINE
5
125
100
AcDbEntity
8
0
100
AcDbPolyline
90
4
70
1
43
0.0
10
-306.40000000000219
20
-91.354801876850047
10
-306.40000000000219
20
-101.35480187685003
10
-309.40000000000219
20
-101.35480187685005
10
-309.40000000000219
20
-91.354801876850047
0
LWPOLYLINE
5
126
100
AcDbEntity
8
0
100
AcDbPolyline
90
4
70
1
43
0.0
10
-133.50000000000216
20
-70.104801876850033
10
-136.50000000000216
20
-70.104801876850047
10
-136.50000000000216
20
-60.104801876850047
10
-133.50000000000216
20
-60.104801876850047
0
CIRCLE
5
127
100
AcDbEntity
8
0
100
AcDbCircle
10
-112.5
20
-7.5000000000000346
30
0
40
1.9999999999999929
210
0
220
-0
230
1
0
LWPOLYLINE
5
128
100
AcDbEntity
8
0
100
AcDbPolyline
90
4
70
1
43
0.0
10
-271.50000000000216
20
64.895198123149953
10
-271.50000000000216
20
54.895198123149967
10
-274.50000000000216
20
54.895198123149953
10
-274.50000000000216
20
64.895198123149953
0
CIRCLE
5
129
100
AcDbEntity
8
0
100
AcDbCircle
10
-262.5
20
-112.49999999999999
30
0
40
1.9999999999999929
210
0
220
-0
230
1
0
LWPOLYLINE
5
130
100
AcDbEntity
8
0
100
AcDbPolyline
90
4
70
1
43
0.0
10
4.4999999999978613
20
33.645198123149953
10
4.4999999999978613
20
23.645198123149971
10
1.4999999999978542
20
23.645198123149953
10
1.4999999999978542
20
33.645198123149953
0
LWPOLYLINE
5
131
100
AcDbEntity
8
0
100
AcDbPolyline
90
4
70
1
43
0.0
10
39.399999999997881
20
-38.854801876850033
10
36.399999999997874
20
-38.854801876850047
10
36.399999999997874
20
-28.854801876850047
10
39.399999999997881
20
-28.854801876850047
0
CIRCLE
5
132
100
AcDbEntity
8
0
100
AcDbCircle
10
-7.5000000000000071
20
-112.49999999999999
30
0
40
1.9999999999999996
210
0
220
-0
230
1
0
LWPOLYLINE
5
133
100
AcDbEntity
8
0
100
AcDbPolyline
90
4
70
1
43
0.0
10
26.999999999997783
20
-143.85480187684999
10
29.999999999997783
20
-143.85480187684999
10
29.999999999997783
20
-153.85480187684999
10
26.999999999997783
20
-153.85480187685002
0
LWPOLYLINE
5
134
100
AcDbEntity
8
0
100
AcDbPolyline
90
4
70
1
43
0.0
10
4.4999999999978613
20
-122.60480187685005
10
4.4999999999978613
20
-132.60480187685002
10
1.4999999999978542
20
-132.60480187685005
10
1.4999999999978542
20
-122.60480187685005
0
CIRCLE
5
135
100
AcDbEntity
8
0
100
AcDbCircle
10
-60
20
-60
30
0
40
57.5
210
0
220
-0
230
1
0
LWPOLYLINE
5
136
100
AcDbEntity
8
0
100
AcDbPolyline
90
4
70
1
43
0.0
10
4.4999999999978613
20
-60.104801876850047
10
4.4999999999978613
20
-70.104801876850033
10
1.4999999999978542
20
-70.104801876850047
10
1.4999999999978542
20
-60.104801876850047
0
LWPOLYLINE
5
137
100
AcDbEntity
8
0
100
AcDbPolyline
90
4
70
1
43
0.0
10
4.4999999999978613
20
-28.854801876850047
10
4.4999999999978613
20
-38.854801876850033
10
1.4999999999978542
20
-38.854801876850047
10
1.4999999999978542
20
-28.854801876850047
0
CIRCLE
5
138
100
AcDbEntity
8
0
100
AcDbCircle
10
-7.5000000000000071
20
-7.5000000000000258
30
0
40
1.9999999999999996
210
0
220
-0
230
1
0
LWPOLYLINE
5
139
100
AcDbEntity
8
0
100
AcDbPolyline
90
4
70
1
43
0.0
10
-271.50000000000216
20
33.645198123149953
10
-271.50000000000216
20
23.645198123149971
10
-274.50000000000216
20
23.645198123149953
10
-274.50000000000216
20
33.645198123149953
0
CIRCLE
5
140
100
AcDbEntity
8
0
100
AcDbCircle
10
-112.5
20
-112.49999999999999
30
0
40
1.9999999999999929
210
0
220
-0
230
1
0
LWPOLYLINE
5
141
100
AcDbEntity
8
0
100
AcDbPolyline
90
4
70
1
43
0.0
10
-306.40000000000219
20
-7.6048018768500292
10
-309.40000000000219
20
-7.6048018768500469
10
-309.40000000000219
20
2.3951981231499531
10
-306.40000000000219
20
2.3951981231499531
0
LWPOLYLINE
5
142
100
AcDbEntity
8
0
100
AcDbPolyline
90
4
70
1
43
0.0
10
-306.40000000000219
20
-132.60480187685002
10
-309.40000000000219
20
-132.60480187685005
10
-309.40000000000219
20
-122.60480187685005
10
-306.40000000000219
20
-122.60480187685005
0
LWPOLYLINE
5
143
100
AcDbEntity
8
0
100
AcDbPolyline
90
4
70
1
43
0.0
10
-306.40000000000219
20
-60.104801876850047
10
-306.40000000000219
20
-70.104801876850033
10
-309.40000000000219
20
-70.104801876850047
10
-309.40000000000219
20
-60.104801876850047
0
LWPOLYLINE
5
144
100
AcDbEntity
8
0
100
AcDbPolyline
90
4
70
1
43
0.0
10
-133.50000000000216
20
23.645198123149971
10
-136.50000000000216
20
23.645198123149953
10
-136.50000000000216
20
33.645198123149953
10
-133.50000000000216
20
33.645198123149953
0
LWPOLYLINE
5
145
100
AcDbEntity
8
0
100
AcDbPolyline
90
4
70
1
43
0.0
10
39.399999999997881
20
-91.354801876850047
10
39.399999999997881
20
-101.35480187685003
10
36.399999999997874
20
-101.35480187685005
10
36.399999999997874
20
-91.354801876850047
0
LWPOLYLINE
5
146
100
AcDbEntity
8
0
100
AcDbPolyline
90
4
70
1
43
0.0
10
-271.50000000000216
20
-122.60480187685005
10
-271.50000000000216
20
-132.60480187685002
10
-274.50000000000216
20
-132.60480187685005
10
-274.50000000000216
20
-122.60480187685005
0
LWPOLYLINE
5
147
100
AcDbEntity
8
0
100
AcDbPolyline
90
44
70
1
43
0.0
10
-306.40000000000219
20
96.145198123149953
10
-306.40000000000219
20
86.145198123149967
10
-309.40000000000219
20
86.145198123149953
10
-309.40000000000219
20
96.145198123149953
42
0.4142135623730932
10
-315.0000000000021
20
90.545198123150044
10
-315.00000000000216
20
-158.25480187685014
42
0.41421356237309503
10
-309.40000000000219
20
-163.85480187685005
10
-309.40000000000219
20
-153.85480187685005
10
-306.40000000000219
20
-153.85480187685005
10
-306.40000000000214
20
-163.85480187685002
10
-274.50000000000216
20
-163.85480187685005
10
-274.50000000000216
20
-153.85480187685005
10
-271.50000000000216
20
-153.85480187685005
10
-271.50000000000216
20
-163.85480187685002
10
-136.50000000000216
20
-163.85480187685005
10
-136.50000000000216
20
-153.85480187685005
10
-133.50000000000216
20
-153.85480187685005
10
-133.50000000000216
20
-163.85480187685005
10
1.4999999999978542
20
-163.85480187685005
10
1.4999999999978542
20
-153.85480187685005
10
4.4999999999978613
20
-153.85480187685005
10
4.4999999999978613
20
-163.85480187685002
10
36.399999999997874
20
-163.85480187685005
10
36.399999999997874
20
-153.85480187685005
10
39.399999999997881
20
-153.85480187685005
10
39.399999999997881
20
-163.85480187685002
42
0.41421356237309503
10
44.999999999997797
20
-158.25480187685014
10
44.999999999997783
20
90.545198123150044
42
0.41421356237309503
10
39.399999999997881
20
96.145198123149939
10
39.399999999997881
20
86.145198123149967
10
36.399999999997874
20
86.145198123149953
10
36.399999999997874
20
96.145198123149953
10
4.4999999999978613
20
96.145198123149953
10
4.4999999999978613
20
86.145198123149967
10
1.4999999999978542
20
86.145198123149953
10
1.4999999999978542
20
96.145198123149953
10
-133.50000000000216
20
96.145198123149953
10
-133.50000000000216
20
86.145198123149967
10
-136.50000000000216
20
86.145198123149953
10
-136.50000000000216
20
96.145198123149953
10
-271.50000000000216
20
96.145198123149953
10
-271.50000000000216
20
86.145198123149967
10
-274.50000000000216
20
86.145198123149953
10
-274.50000000000216
20
96.145198123149953
0
ENDSEC
0
SECTION
2
OBJECTS
0
DICTIONARY
5
C
100
AcDbDictionary
3
ACAD_GROUP
350
D
3
ACAD_MLINESTYLE
350
17
0
DICTIONARY
5
D
100
AcDbDictionary
0
DICTIONARY
5
1A
330
C
100
AcDbDictionary
0
DICTIONARY
5
17
100
AcDbDictionary
0
ENDSEC
0
EOF
